<svg width="24" height="24" viewBox="0 0 24 24" fill="none" xmlns="http://www.w3.org/2000/svg">
<mask id="mask0_1783_16841" style="mask-type:alpha" maskUnits="userSpaceOnUse" x="0" y="0" width="24" height="24">
<rect width="24" height="24" fill="#D9D9D9"/>
</mask>
<g mask="url(#mask0_1783_16841)">
<path d="M12 22C10.6333 22 9.34167 21.7375 8.125 21.2125C6.90833 20.6875 5.84583 19.9708 4.9375 19.0625C4.02917 18.1542 3.3125 17.0917 2.7875 15.875C2.2625 14.6583 2 13.3667 2 12C2 10.6167 2.2625 9.32083 2.7875 8.1125C3.3125 6.90417 4.02917 5.84583 4.9375 4.9375C5.84583 4.02917 6.90833 3.3125 8.125 2.7875C9.34167 2.2625 10.6333 2 12 2C13.3833 2 14.6792 2.2625 15.8875 2.7875C17.0958 3.3125 18.1542 4.02917 19.0625 4.9375C19.9708 5.84583 20.6875 6.90417 21.2125 8.1125C21.7375 9.32083 22 10.6167 22 12V13.45C22 14.4333 21.6625 15.2708 20.9875 15.9625C20.3125 16.6542 19.4833 17 18.5 17C17.9 17 17.3417 16.8667 16.825 16.6C16.3083 16.3333 15.8833 15.9833 15.55 15.55C15.1 16 14.5708 16.3542 13.9625 16.6125C13.3542 16.8708 12.7 17 12 17C10.6167 17 9.4375 16.5125 8.4625 15.5375C7.4875 14.5625 7 13.3833 7 12C7 10.6167 7.4875 9.4375 8.4625 8.4625C9.4375 7.4875 10.6167 7 12 7C13.3833 7 14.5625 7.4875 15.5375 8.4625C16.5125 9.4375 17 10.6167 17 12V13.45C17 13.9333 17.15 14.3125 17.45 14.5875C17.75 14.8625 18.1 15 18.5 15C18.9 15 19.25 14.8625 19.55 14.5875C19.85 14.3125 20 13.9333 20 13.45V12C20 9.81667 19.2125 7.9375 17.6375 6.3625C16.0625 4.7875 14.1833 4 12 4C9.81667 4 7.9375 4.7875 6.3625 6.3625C4.7875 7.9375 4 9.81667 4 12C4 14.1833 4.7875 16.0625 6.3625 17.6375C7.9375 19.2125 9.81667 20 12 20H16C16.2833 20 16.5208 20.0958 16.7125 20.2875C16.9042 20.4792 17 20.7167 17 21C17 21.2833 16.9042 21.5208 16.7125 21.7125C16.5208 21.9042 16.2833 22 16 22H12ZM12 15C12.8333 15 13.5417 14.7083 14.125 14.125C14.7083 13.5417 15 12.8333 15 12C15 11.1667 14.7083 10.4583 14.125 9.875C13.5417 9.29167 12.8333 9 12 9C11.1667 9 10.4583 9.29167 9.875 9.875C9.29167 10.4583 9 11.1667 9 12C9 12.8333 9.29167 13.5417 9.875 14.125C10.4583 14.7083 11.1667 15 12 15Z" fill="#2D2D2D"/>
</g>
</svg>
