<svg width="70" height="71" viewBox="0 0 70 71" fill="none" xmlns="http://www.w3.org/2000/svg">
<rect y="0.5" width="70" height="70" rx="35" fill="#C2813E"/>
<mask id="mask0_3_52" style="mask-type:alpha" maskUnits="userSpaceOnUse" x="15" y="15" width="40" height="41">
<rect x="15" y="15.5" width="40" height="40" fill="#D9D9D9"/>
</mask>
<g mask="url(#mask0_3_52)">
<path d="M35 52.1667C32.0556 52.1667 29.6528 51.7017 27.7917 50.7717C25.9306 49.8406 25 48.6389 25 47.1667C25 46.1945 25.4028 45.3473 26.2083 44.625C27.0139 43.9028 28.125 43.3334 29.5417 42.9167L30.5 46.0834C30.0278 46.2223 29.5972 46.3962 29.2083 46.605C28.8194 46.8128 28.5556 47 28.4167 47.1667C28.7778 47.6112 29.6111 48 30.9167 48.3334C32.2222 48.6667 33.5833 48.8334 35 48.8334C36.4167 48.8334 37.785 48.6667 39.105 48.3334C40.4239 48 41.2639 47.6112 41.625 47.1667C41.4861 47 41.2222 46.8128 40.8333 46.605C40.4444 46.3962 40.0139 46.2223 39.5417 46.0834L40.5 42.9167C41.9167 43.3334 43.0211 43.9028 43.8133 44.625C44.6044 45.3473 45 46.1945 45 47.1667C45 48.6389 44.0694 49.8406 42.2083 50.7717C40.3472 51.7017 37.9444 52.1667 35 52.1667ZM35 41.0417C35.5 40.125 36.0278 39.2845 36.5833 38.52C37.1389 37.7567 37.6806 37.0278 38.2083 36.3334C39.2361 35 40.0556 33.7984 40.6667 32.7284C41.2778 31.6595 41.5833 30.3334 41.5833 28.75C41.5833 26.9167 40.9444 25.3612 39.6667 24.0834C38.3889 22.8056 36.8333 22.1667 35 22.1667C33.1667 22.1667 31.6111 22.8056 30.3333 24.0834C29.0556 25.3612 28.4167 26.9167 28.4167 28.75C28.4167 30.3334 28.7222 31.6595 29.3333 32.7284C29.9444 33.7984 30.7639 35 31.7917 36.3334C32.3194 37.0278 32.8611 37.7567 33.4167 38.52C33.9722 39.2845 34.5 40.125 35 41.0417ZM35 47.1667C34.6944 47.1667 34.4167 47.0762 34.1667 46.895C33.9167 46.715 33.7361 46.4723 33.625 46.1667C32.9861 44.1945 32.1806 42.5417 31.2083 41.2084C30.2361 39.875 29.2917 38.5973 28.375 37.375C27.4861 36.1528 26.7156 34.8889 26.0633 33.5834C25.41 32.2778 25.0833 30.6667 25.0833 28.75C25.0833 25.9723 26.0417 23.625 27.9583 21.7084C29.875 19.7917 32.2222 18.8334 35 18.8334C37.7778 18.8334 40.125 19.7917 42.0417 21.7084C43.9583 23.625 44.9167 25.9723 44.9167 28.75C44.9167 30.6667 44.5972 32.2778 43.9583 33.5834C43.3194 34.8889 42.5417 36.1528 41.625 37.375C40.7361 38.5973 39.7989 39.875 38.8133 41.2084C37.8267 42.5417 37.0139 44.1945 36.375 46.1667C36.2639 46.4723 36.0833 46.715 35.8333 46.895C35.5833 47.0762 35.3056 47.1667 35 47.1667ZM35 32.2917C35.9722 32.2917 36.8056 31.9445 37.5 31.25C38.1944 30.5556 38.5417 29.7223 38.5417 28.75C38.5417 27.7778 38.1944 26.9445 37.5 26.25C36.8056 25.5556 35.9722 25.2084 35 25.2084C34.0278 25.2084 33.1944 25.5556 32.5 26.25C31.8056 26.9445 31.4583 27.7778 31.4583 28.75C31.4583 29.7223 31.8056 30.5556 32.5 31.25C33.1944 31.9445 34.0278 32.2917 35 32.2917Z" fill="#FDFDFD"/>
</g>
</svg>
