<svg width="66" height="67" viewBox="0 0 66 67" fill="none" xmlns="http://www.w3.org/2000/svg">
<rect y="0.5" width="66" height="66" rx="33" fill="#C2813E"/>
<mask id="mask0_3_58" style="mask-type:alpha" maskUnits="userSpaceOnUse" x="15" y="15" width="36" height="37">
<rect x="15" y="15.5" width="36" height="36" fill="#D9D9D9"/>
</mask>
<g mask="url(#mask0_3_58)">
<path d="M44.4 47L34.95 37.55C34.2 38.15 33.3375 38.625 32.3625 38.975C31.3875 39.325 30.35 39.5 29.25 39.5C26.525 39.5 24.2188 38.5562 22.3313 36.6688C20.4438 34.7812 19.5 32.475 19.5 29.75C19.5 27.025 20.4438 24.7188 22.3313 22.8313C24.2188 20.9438 26.525 20 29.25 20C31.975 20 34.2812 20.9438 36.1688 22.8313C38.0562 24.7188 39 27.025 39 29.75C39 30.85 38.825 31.8875 38.475 32.8625C38.125 33.8375 37.65 34.7 37.05 35.45L46.5 44.9L44.4 47ZM29.25 36.5C31.125 36.5 32.7188 35.8438 34.0312 34.5312C35.3438 33.2188 36 31.625 36 29.75C36 27.875 35.3438 26.2812 34.0312 24.9688C32.7188 23.6562 31.125 23 29.25 23C27.375 23 25.7812 23.6562 24.4688 24.9688C23.1562 26.2812 22.5 27.875 22.5 29.75C22.5 31.625 23.1562 33.2188 24.4688 34.5312C25.7812 35.8438 27.375 36.5 29.25 36.5Z" fill="#FDFDFD"/>
</g>
</svg>
