<svg width="66" height="67" viewBox="0 0 66 67" fill="none" xmlns="http://www.w3.org/2000/svg">
<rect y="0.5" width="66" height="66" rx="33" fill="#C2813E"/>
<mask id="mask0_3_67" style="mask-type:alpha" maskUnits="userSpaceOnUse" x="15" y="15" width="36" height="37">
<rect x="15" y="15.5" width="36" height="36" fill="#D9D9D9"/>
</mask>
<g mask="url(#mask0_3_67)">
<path d="M33 48.4999C31.125 48.4999 29.3687 48.1437 27.7312 47.4312C26.0937 46.7187 24.6687 45.7562 23.4562 44.5437C22.2437 43.3312 21.2812 41.9062 20.5687 40.2687C19.8562 38.6312 19.5 36.8749 19.5 34.9999C19.5 33.1249 19.8562 31.3687 20.5687 29.7312C21.2812 28.0937 22.2437 26.6687 23.4562 25.4562C24.6687 24.2437 26.0937 23.2812 27.7312 22.5687C29.3687 21.8562 31.125 21.4999 33 21.4999C34.875 21.4999 36.6312 21.8562 38.2687 22.5687C39.9062 23.2812 41.3312 24.2437 42.5437 25.4562C43.7562 26.6687 44.7187 28.0937 45.4312 29.7312C46.1437 31.3687 46.5 33.1249 46.5 34.9999C46.5 36.8749 46.1437 38.6312 45.4312 40.2687C44.7187 41.9062 43.7562 43.3312 42.5437 44.5437C41.3312 45.7562 39.9062 46.7187 38.2687 47.4312C36.6312 48.1437 34.875 48.4999 33 48.4999ZM37.2 41.2999L39.3 39.1999L34.5 34.3999V27.4999H31.5V35.5999L37.2 41.2999ZM23.4 19.0249L25.5 21.1249L19.125 27.4999L17.025 25.3999L23.4 19.0249ZM42.6 19.0249L48.975 25.3999L46.875 27.4999L40.5 21.1249L42.6 19.0249ZM33 45.4999C35.925 45.4999 38.4062 44.4812 40.4437 42.4437C42.4812 40.4062 43.5 37.9249 43.5 34.9999C43.5 32.0749 42.4812 29.5937 40.4437 27.5562C38.4062 25.5187 35.925 24.4999 33 24.4999C30.075 24.4999 27.5937 25.5187 25.5562 27.5562C23.5187 29.5937 22.5 32.0749 22.5 34.9999C22.5 37.9249 23.5187 40.4062 25.5562 42.4437C27.5937 44.4812 30.075 45.4999 33 45.4999Z" fill="#FDFDFD"/>
</g>
</svg>
