<svg width="18" height="16" viewBox="0 0 18 16" fill="none" xmlns="http://www.w3.org/2000/svg">
<path d="M9.75065 8.37488V5.74754C9.75065 5.54077 9.6792 5.36446 9.5363 5.21863C9.39338 5.07279 9.2163 4.99988 9.00505 4.99988C8.79378 4.99988 8.61524 5.07111 8.4694 5.21357C8.32357 5.35601 8.25065 5.53253 8.25065 5.74313V8.6975C8.25065 8.79662 8.27149 8.89262 8.31315 8.98552C8.35482 9.07843 8.41273 9.16195 8.48688 9.23611L10.5632 11.3124C10.7159 11.4652 10.893 11.5381 11.0944 11.5311C11.2958 11.5242 11.4729 11.4443 11.6257 11.2915C11.7784 11.1388 11.8548 10.9617 11.8548 10.7603C11.8548 10.5589 11.7784 10.3818 11.6257 10.229L9.75065 8.37488ZM9.00065 15.9999C8.02843 15.9999 7.11778 15.8152 6.26871 15.4457C5.41963 15.0763 4.68074 14.5772 4.05205 13.9485C3.42334 13.3198 2.92426 12.5809 2.55482 11.7318C2.18537 10.8827 2.00065 9.9721 2.00065 8.99988C2.00065 8.02766 2.18537 7.11701 2.55482 6.26794C2.92426 5.41886 3.42334 4.67997 4.05205 4.05127C4.68074 3.42257 5.41963 2.92349 6.26871 2.55404C7.11778 2.1846 8.02843 1.99988 9.00065 1.99988C9.97287 1.99988 10.8835 2.1846 11.7326 2.55404C12.5817 2.92349 13.3206 3.42257 13.9493 4.05127C14.578 4.67997 15.077 5.41886 15.4465 6.26794C15.8159 7.11701 16.0007 8.02766 16.0007 8.99988C16.0007 9.9721 15.8159 10.8827 15.4465 11.7318C15.077 12.5809 14.578 13.3198 13.9493 13.9485C13.3206 14.5772 12.5817 15.0763 11.7326 15.4457C10.8835 15.8152 9.97287 15.9999 9.00065 15.9999ZM0.938151 4.45821C0.785373 4.30543 0.708984 4.12835 0.708984 3.92696C0.708984 3.72557 0.785373 3.54849 0.938151 3.39571L3.41732 0.916545C3.5701 0.763767 3.74718 0.687378 3.94857 0.687378C4.14996 0.687378 4.32704 0.763767 4.47982 0.916545C4.6326 1.06932 4.70898 1.24641 4.70898 1.44779C4.70898 1.64918 4.6326 1.82627 4.47982 1.97904L1.97982 4.47904C1.82704 4.63182 1.65343 4.70474 1.45898 4.69779C1.26454 4.69085 1.09093 4.61099 0.938151 4.45821ZM17.084 4.45821C16.9312 4.61099 16.7541 4.68738 16.5527 4.68738C16.3513 4.68738 16.1743 4.61099 16.0215 4.45821L13.5423 1.97904C13.3895 1.82627 13.3132 1.64918 13.3132 1.44779C13.3132 1.24641 13.3895 1.06932 13.5423 0.916545C13.6951 0.763767 13.8722 0.687378 14.0736 0.687378C14.275 0.687378 14.452 0.763767 14.6048 0.916545L17.084 3.41654C17.2368 3.56932 17.3132 3.74293 17.3132 3.93738C17.3132 4.13182 17.2368 4.30543 17.084 4.45821ZM8.99603 14.4999C10.5269 14.4999 11.827 13.9667 12.8965 12.9003C13.9659 11.834 14.5007 10.5354 14.5007 9.0045C14.5007 7.47364 13.9675 6.17349 12.9011 5.10404C11.8347 4.0346 10.5361 3.49988 9.00528 3.49988C7.47442 3.49988 6.17426 4.03306 5.10482 5.09942C4.03537 6.1658 3.50065 7.46441 3.50065 8.99525C3.50065 10.5261 4.03383 11.8263 5.10019 12.8957C6.16657 13.9652 7.46518 14.4999 8.99603 14.4999Z" fill="#12100E"/>
</svg>
