<svg width="5" height="8" viewBox="0 0 5 8" fill="none" xmlns="http://www.w3.org/2000/svg">
<path d="M3.86621 7.53333L0.799544 4.46666C0.732878 4.39999 0.685655 4.32777 0.657878 4.24999C0.6301 4.17221 0.616211 4.08888 0.616211 3.99999C0.616211 3.9111 0.6301 3.82777 0.657878 3.74999C0.685655 3.67221 0.732878 3.59999 0.799544 3.53333L3.86621 0.466659C3.98843 0.344436 4.14399 0.283325 4.33288 0.283325C4.52177 0.283325 4.67732 0.344436 4.79954 0.466659C4.92177 0.588881 4.98288 0.744436 4.98288 0.933325C4.98288 1.12221 4.92177 1.27777 4.79954 1.39999L2.19954 3.99999L4.79954 6.59999C4.92177 6.72221 4.98288 6.87777 4.98288 7.06666C4.98288 7.25555 4.92177 7.4111 4.79954 7.53333C4.67732 7.65555 4.52177 7.71666 4.33288 7.71666C4.14399 7.71666 3.98843 7.65555 3.86621 7.53333Z" fill="#B2B3B2"/>
</svg>
