<svg width="18" height="18" viewBox="0 0 18 18" fill="none" xmlns="http://www.w3.org/2000/svg">
<path d="M8.99984 10.1665L11.4165 12.5832C11.5693 12.7359 11.7637 12.8123 11.9998 12.8123C12.2359 12.8123 12.4304 12.7359 12.5832 12.5832C12.7359 12.4304 12.8123 12.2359 12.8123 11.9998C12.8123 11.7637 12.7359 11.5693 12.5832 11.4165L10.1665 8.99984L12.5832 6.58317C12.7359 6.43039 12.8123 6.23595 12.8123 5.99984C12.8123 5.76373 12.7359 5.56928 12.5832 5.4165C12.4304 5.26373 12.2359 5.18734 11.9998 5.18734C11.7637 5.18734 11.5693 5.26373 11.4165 5.4165L8.99984 7.83317L6.58317 5.4165C6.43039 5.26373 6.23595 5.18734 5.99984 5.18734C5.76373 5.18734 5.56928 5.26373 5.4165 5.4165C5.26373 5.56928 5.18734 5.76373 5.18734 5.99984C5.18734 6.23595 5.26373 6.43039 5.4165 6.58317L7.83317 8.99984L5.4165 11.4165C5.26373 11.5693 5.18734 11.7637 5.18734 11.9998C5.18734 12.2359 5.26373 12.4304 5.4165 12.5832C5.56928 12.7359 5.76373 12.8123 5.99984 12.8123C6.23595 12.8123 6.43039 12.7359 6.58317 12.5832L8.99984 10.1665ZM8.99984 17.3332C7.84706 17.3332 6.76373 17.1144 5.74984 16.6769C4.73595 16.2394 3.854 15.6457 3.104 14.8957C2.354 14.1457 1.76025 13.2637 1.32275 12.2498C0.885254 11.2359 0.666504 10.1526 0.666504 8.99984C0.666504 7.84706 0.885254 6.76373 1.32275 5.74984C1.76025 4.73595 2.354 3.854 3.104 3.104C3.854 2.354 4.73595 1.76025 5.74984 1.32275C6.76373 0.885254 7.84706 0.666504 8.99984 0.666504C10.1526 0.666504 11.2359 0.885254 12.2498 1.32275C13.2637 1.76025 14.1457 2.354 14.8957 3.104C15.6457 3.854 16.2394 4.73595 16.6769 5.74984C17.1144 6.76373 17.3332 7.84706 17.3332 8.99984C17.3332 10.1526 17.1144 11.2359 16.6769 12.2498C16.2394 13.2637 15.6457 14.1457 14.8957 14.8957C14.1457 15.6457 13.2637 16.2394 12.2498 16.6769C11.2359 17.1144 10.1526 17.3332 8.99984 17.3332ZM8.99984 15.6665C10.8609 15.6665 12.4373 15.0207 13.729 13.729C15.0207 12.4373 15.6665 10.8609 15.6665 8.99984C15.6665 7.13873 15.0207 5.56234 13.729 4.27067C12.4373 2.979 10.8609 2.33317 8.99984 2.33317C7.13873 2.33317 5.56234 2.979 4.27067 4.27067C2.979 5.56234 2.33317 7.13873 2.33317 8.99984C2.33317 10.8609 2.979 12.4373 4.27067 13.729C5.56234 15.0207 7.13873 15.6665 8.99984 15.6665Z" fill="#B2B3B2"/>
</svg>
