<svg width="14" height="10" viewBox="0 0 14 10" fill="none" xmlns="http://www.w3.org/2000/svg">
<path d="M5.20814 9.64453C5.09702 9.64453 4.99286 9.62717 4.89564 9.59245C4.79841 9.55773 4.70814 9.4987 4.6248 9.41537L1.04147 5.83203C0.888691 5.67925 0.815774 5.48134 0.822719 5.23828C0.829663 4.99523 0.909524 4.79731 1.0623 4.64453C1.21508 4.49175 1.40952 4.41536 1.64564 4.41536C1.88175 4.41536 2.07619 4.49175 2.22897 4.64453L5.20814 7.6237L12.2706 0.561198C12.4234 0.40842 12.6213 0.332031 12.8644 0.332031C13.1074 0.332031 13.3054 0.40842 13.4581 0.561198C13.6109 0.713976 13.6873 0.911892 13.6873 1.15495C13.6873 1.398 13.6109 1.59592 13.4581 1.7487L5.79147 9.41537C5.70814 9.4987 5.61786 9.55773 5.52064 9.59245C5.42341 9.62717 5.31925 9.64453 5.20814 9.64453Z" fill="#B2B3B2"/>
</svg>
