<svg width="17" height="14" viewBox="0 0 17 14" fill="none" xmlns="http://www.w3.org/2000/svg">
<path d="M8.50033 11.1666C8.73644 11.1666 8.93435 11.0867 9.09408 10.927C9.2538 10.7673 9.33366 10.5694 9.33366 10.3333V7.66659L10.0837 8.41658C10.167 8.49992 10.2573 8.55895 10.3545 8.59367C10.4517 8.62839 10.5559 8.64575 10.667 8.64575C10.7781 8.64575 10.8823 8.62839 10.9795 8.59367C11.0767 8.55895 11.167 8.49992 11.2503 8.41658C11.4031 8.26381 11.4795 8.06936 11.4795 7.83325C11.4795 7.59714 11.4031 7.4027 11.2503 7.24992L9.08366 5.08325C8.91699 4.91659 8.72255 4.83325 8.50033 4.83325C8.2781 4.83325 8.08366 4.91659 7.91699 5.08325L5.75033 7.24992C5.59755 7.4027 5.52116 7.59714 5.52116 7.83325C5.52116 8.06936 5.59755 8.26381 5.75033 8.41658C5.9031 8.56936 6.09755 8.64575 6.33366 8.64575C6.56977 8.64575 6.76421 8.56936 6.91699 8.41658L7.66699 7.66659V10.3333C7.66699 10.5694 7.74685 10.7673 7.90658 10.927C8.0663 11.0867 8.26421 11.1666 8.50033 11.1666ZM1.83366 13.6666C1.37533 13.6666 0.982965 13.5034 0.656576 13.177C0.330187 12.8506 0.166992 12.4583 0.166992 11.9999V1.99992C0.166992 1.54159 0.330187 1.14922 0.656576 0.822835C0.982965 0.496446 1.37533 0.333252 1.83366 0.333252H6.14616C6.36838 0.333252 6.58019 0.374919 6.78158 0.458252C6.98296 0.541585 7.16005 0.659641 7.31283 0.812419L8.50033 1.99992H15.167C15.6253 1.99992 16.0177 2.16311 16.3441 2.4895C16.6705 2.81589 16.8337 3.20825 16.8337 3.66659V11.9999C16.8337 12.4583 16.6705 12.8506 16.3441 13.177C16.0177 13.5034 15.6253 13.6666 15.167 13.6666H1.83366ZM1.83366 1.99992V11.9999H15.167V3.66659H7.81283L6.14616 1.99992H1.83366Z" fill="#FDFDFD"/>
</svg>
