<svg width="18" height="18" viewBox="0 0 18 18" fill="none" xmlns="http://www.w3.org/2000/svg">
<path d="M2.58366 17.7707C2.12533 17.7707 1.73296 17.6075 1.40658 17.2811C1.08019 16.9547 0.916992 16.5623 0.916992 16.104V4.43734C0.916992 3.979 1.08019 3.58664 1.40658 3.26025C1.73296 2.93386 2.12533 2.77067 2.58366 2.77067H10.0212L8.35449 4.43734H2.58366V16.104H14.2503V10.3123L15.917 8.64567V16.104C15.917 16.5623 15.7538 16.9547 15.4274 17.2811C15.101 17.6075 14.7087 17.7707 14.2503 17.7707H2.58366ZM11.8962 3.24984L13.0837 4.4165L7.58366 9.9165V11.104H8.75033L14.2712 5.58317L15.4587 6.74984L9.93783 12.2707C9.78505 12.4234 9.60796 12.545 9.40658 12.6353C9.20519 12.7255 8.99338 12.7707 8.77116 12.7707H6.75033C6.51421 12.7707 6.3163 12.6908 6.15658 12.5311C5.99685 12.3714 5.91699 12.1734 5.91699 11.9373V9.9165C5.91699 9.69428 5.95866 9.48248 6.04199 9.28109C6.12533 9.0797 6.24338 8.90261 6.39616 8.74984L11.8962 3.24984ZM15.4587 6.74984L11.8962 3.24984L13.9795 1.1665C14.3128 0.833171 14.7121 0.666504 15.1774 0.666504C15.6427 0.666504 16.035 0.833171 16.3545 1.1665L17.5212 2.354C17.8406 2.67345 18.0003 3.06234 18.0003 3.52067C18.0003 3.979 17.8406 4.36789 17.5212 4.68734L15.4587 6.74984Z" fill="#FDFDFD"/>
</svg>
