<svg width="21" height="21" viewBox="0 0 21 21" fill="none" xmlns="http://www.w3.org/2000/svg">
<path d="M2 20.525C1.45 20.525 0.979167 20.3292 0.5875 19.9375C0.195833 19.5458 0 19.075 0 18.525V4.525C0 3.975 0.195833 3.50417 0.5875 3.1125C0.979167 2.72083 1.45 2.525 2 2.525H10.925L8.925 4.525H2V18.525H16V11.575L18 9.575V18.525C18 19.075 17.8042 19.5458 17.4125 19.9375C17.0208 20.3292 16.55 20.525 16 20.525H2ZM13.175 3.1L14.6 4.5L8 11.1V12.525H9.4L16.025 5.9L17.45 7.3L10.825 13.925C10.6417 14.1083 10.4292 14.2542 10.1875 14.3625C9.94583 14.4708 9.69167 14.525 9.425 14.525H7C6.71667 14.525 6.47917 14.4292 6.2875 14.2375C6.09583 14.0458 6 13.8083 6 13.525V11.1C6 10.8333 6.05 10.5792 6.15 10.3375C6.25 10.0958 6.39167 9.88333 6.575 9.7L13.175 3.1ZM17.45 7.3L13.175 3.1L15.675 0.6C16.075 0.2 16.5542 0 17.1125 0C17.6708 0 18.1417 0.2 18.525 0.6L19.925 2.025C20.3083 2.40833 20.5 2.875 20.5 3.425C20.5 3.975 20.3083 4.44167 19.925 4.825L17.45 7.3Z" fill="#12100E"/>
</svg>
