<svg width="24" height="24" viewBox="0 0 24 24" fill="none" xmlns="http://www.w3.org/2000/svg">
<mask id="mask0_19_473" style="mask-type:alpha" maskUnits="userSpaceOnUse" x="0" y="0" width="24" height="24">
<rect width="24" height="24" fill="#D9D9D9"/>
</mask>
<g mask="url(#mask0_19_473)">
<path d="M11.9999 14.95C11.8666 14.95 11.7374 14.925 11.6124 14.875C11.4874 14.825 11.3666 14.7416 11.2499 14.625L6.72492 10.1C6.52492 9.89997 6.43325 9.64997 6.44992 9.34997C6.46659 9.04997 6.56659 8.80831 6.74992 8.62497C6.96659 8.40831 7.21659 8.30414 7.49992 8.31247C7.78325 8.32081 8.02492 8.42497 8.22492 8.62497L11.9999 12.425L15.7999 8.62497C15.9999 8.42497 16.2374 8.32497 16.5124 8.32497C16.7874 8.32497 17.0333 8.43331 17.2499 8.64997C17.4499 8.84997 17.5499 9.09581 17.5499 9.38747C17.5499 9.67914 17.4499 9.92497 17.2499 10.125L12.7499 14.625C12.6333 14.7416 12.5124 14.825 12.3874 14.875C12.2624 14.925 12.1333 14.95 11.9999 14.95Z" fill="#1C1B1F"/>
</g>
</svg>
