<svg width="22" height="19" viewBox="0 0 22 19" fill="none" xmlns="http://www.w3.org/2000/svg">
<path d="M2 19C1.45 19 0.979167 18.8042 0.5875 18.4125C0.195833 18.0208 0 17.55 0 17V5C0 4.71667 0.0958333 4.47917 0.2875 4.2875C0.479167 4.09583 0.716667 4 1 4C1.28333 4 1.52083 4.09583 1.7125 4.2875C1.90417 4.47917 2 4.71667 2 5V17H18C18.2833 17 18.5208 17.0958 18.7125 17.2875C18.9042 17.4792 19 17.7167 19 18C19 18.2833 18.9042 18.5208 18.7125 18.7125C18.5208 18.9042 18.2833 19 18 19H2ZM6 15C5.45 15 4.97917 14.8042 4.5875 14.4125C4.19583 14.0208 4 13.55 4 13V2C4 1.45 4.19583 0.979167 4.5875 0.5875C4.97917 0.195833 5.45 0 6 0H10.175C10.4417 0 10.6958 0.05 10.9375 0.15C11.1792 0.25 11.3917 0.391667 11.575 0.575L13 2H20C20.55 2 21.0208 2.19583 21.4125 2.5875C21.8042 2.97917 22 3.45 22 4V13C22 13.55 21.8042 14.0208 21.4125 14.4125C21.0208 14.8042 20.55 15 20 15H6ZM6 13H20V4H12.175L10.175 2H6V13Z" fill="#B2B3B2"/>
</svg>
