<svg width="5" height="8" viewBox="0 0 5 8" fill="none" xmlns="http://www.w3.org/2000/svg">
<path d="M0.799544 7.53345C0.677322 7.41123 0.616211 7.25567 0.616211 7.06678C0.616211 6.87789 0.677322 6.72234 0.799544 6.60011L3.39954 4.00011L0.799544 1.40011C0.677322 1.27789 0.616211 1.12234 0.616211 0.933447C0.616211 0.744558 0.677322 0.589003 0.799544 0.466781C0.921767 0.344558 1.07732 0.283447 1.26621 0.283447C1.4551 0.283447 1.61066 0.344558 1.73288 0.466781L4.79954 3.53345C4.86621 3.60011 4.91343 3.67234 4.94121 3.75011C4.96899 3.82789 4.98288 3.91123 4.98288 4.00011C4.98288 4.089 4.96899 4.17234 4.94121 4.25011C4.91343 4.32789 4.86621 4.40011 4.79954 4.46678L1.73288 7.53345C1.61066 7.65567 1.4551 7.71678 1.26621 7.71678C1.07732 7.71678 0.921767 7.65567 0.799544 7.53345Z" fill="#B2B3B2"/>
</svg>
