<svg width="16" height="16" viewBox="0 0 16 16" fill="none" xmlns="http://www.w3.org/2000/svg">
<path d="M8 16C6.90278 16 5.86806 15.7917 4.89583 15.375C3.92361 14.9583 3.07292 14.3854 2.34375 13.6562C1.61458 12.9271 1.04167 12.0764 0.625 11.1042C0.208333 10.1319 0 9.09722 0 8C0 6.88889 0.208333 5.85069 0.625 4.88542C1.04167 3.92014 1.61458 3.07292 2.34375 2.34375C3.07292 1.61458 3.92361 1.04167 4.89583 0.625C5.86806 0.208333 6.90278 0 8 0C9.11111 0 10.1493 0.208333 11.1146 0.625C12.0799 1.04167 12.9271 1.61458 13.6562 2.34375C14.3854 3.07292 14.9583 3.92014 15.375 4.88542C15.7917 5.85069 16 6.88889 16 8C16 9.09722 15.7917 10.1319 15.375 11.1042C14.9583 12.0764 14.3854 12.9271 13.6562 13.6562C12.9271 14.3854 12.0799 14.9583 11.1146 15.375C10.1493 15.7917 9.11111 16 8 16ZM8 14.4375C8.23611 14.2014 8.47222 13.7604 8.70833 13.1146C8.94444 12.4688 9.125 11.7639 9.25 11H6.75C6.875 11.7639 7.05556 12.4688 7.29167 13.1146C7.52778 13.7604 7.76389 14.2014 8 14.4375ZM6.10417 14.2292C5.90972 13.8125 5.73958 13.3333 5.59375 12.7917C5.44792 12.25 5.32639 11.6528 5.22917 11H2.25C2.65278 11.7917 3.1875 12.4688 3.85417 13.0312C4.52083 13.5938 5.27083 13.9931 6.10417 14.2292ZM9.89583 14.2292C10.7292 13.9931 11.4792 13.5938 12.1458 13.0312C12.8125 12.4688 13.3472 11.7917 13.75 11H10.7708C10.6736 11.6528 10.5521 12.25 10.4062 12.7917C10.2604 13.3333 10.0903 13.8125 9.89583 14.2292ZM10.9583 9.5H14.3125C14.3819 9.23611 14.4306 8.98264 14.4583 8.73958C14.4861 8.49653 14.5 8.25 14.5 8C14.5 7.75 14.4861 7.5 14.4583 7.25C14.4306 7 14.3819 6.75 14.3125 6.5H10.9583C10.9861 6.76389 11.0035 7.02431 11.0104 7.28125C11.0174 7.53819 11.0208 7.79167 11.0208 8.04167C11.0208 8.29167 11.0174 8.53819 11.0104 8.78125C11.0035 9.02431 10.9861 9.26389 10.9583 9.5ZM6.5625 9.5H9.4375C9.46528 9.22222 9.48264 8.96181 9.48958 8.71875C9.49653 8.47569 9.5 8.23611 9.5 8C9.5 7.76389 9.49653 7.52083 9.48958 7.27083C9.48264 7.02083 9.46528 6.76389 9.4375 6.5H6.5625C6.53472 6.76389 6.51736 7.02083 6.51042 7.27083C6.50347 7.52083 6.5 7.76389 6.5 8C6.5 8.23611 6.50347 8.47917 6.51042 8.72917C6.51736 8.97917 6.53472 9.23611 6.5625 9.5ZM1.6875 9.5H5.04167C5.01389 9.23611 4.99653 8.97569 4.98958 8.71875C4.98264 8.46181 4.97917 8.20833 4.97917 7.95833C4.97917 7.70833 4.98264 7.46181 4.98958 7.21875C4.99653 6.97569 5.01389 6.73611 5.04167 6.5H1.6875C1.61806 6.76389 1.56944 7.01736 1.54167 7.26042C1.51389 7.50347 1.5 7.75 1.5 8C1.5 8.25 1.51389 8.49653 1.54167 8.73958C1.56944 8.98264 1.61806 9.23611 1.6875 9.5ZM10.7708 5H13.75C13.3472 4.20833 12.8125 3.53125 12.1458 2.96875C11.4792 2.40625 10.7292 2.00694 9.89583 1.77083C10.0903 2.1875 10.2604 2.66667 10.4062 3.20833C10.5521 3.75 10.6736 4.34722 10.7708 5ZM6.75 5H9.25C9.125 4.23611 8.94444 3.53125 8.70833 2.88542C8.47222 2.23958 8.23611 1.79861 8 1.5625C7.76389 1.79861 7.52778 2.23958 7.29167 2.88542C7.05556 3.53125 6.875 4.23611 6.75 5ZM2.25 5H5.22917C5.32639 4.34722 5.44792 3.75 5.59375 3.20833C5.73958 2.66667 5.90972 2.1875 6.10417 1.77083C5.27083 2.00694 4.52083 2.40625 3.85417 2.96875C3.1875 3.53125 2.65278 4.20833 2.25 5Z" fill="#12100E"/>
</svg>
