<svg width="18" height="10" viewBox="0 0 18 10" fill="none" xmlns="http://www.w3.org/2000/svg">
<path d="M4.83366 9.16671C3.68088 9.16671 2.69824 8.76046 1.88574 7.94796C1.07324 7.13546 0.666992 6.15282 0.666992 5.00004C0.666992 3.84726 1.07324 2.86462 1.88574 2.05212C2.69824 1.23962 3.68088 0.833374 4.83366 0.833374H7.33366C7.56977 0.833374 7.76769 0.913235 7.92741 1.07296C8.08713 1.23268 8.16699 1.4306 8.16699 1.66671C8.16699 1.90282 8.08713 2.10074 7.92741 2.26046C7.76769 2.42018 7.56977 2.50004 7.33366 2.50004H4.83366C4.13921 2.50004 3.54894 2.7431 3.06283 3.22921C2.57671 3.71532 2.33366 4.3056 2.33366 5.00004C2.33366 5.69449 2.57671 6.28476 3.06283 6.77087C3.54894 7.25699 4.13921 7.50004 4.83366 7.50004H7.33366C7.56977 7.50004 7.76769 7.5799 7.92741 7.73962C8.08713 7.89935 8.16699 8.09726 8.16699 8.33337C8.16699 8.56949 8.08713 8.7674 7.92741 8.92712C7.76769 9.08685 7.56977 9.16671 7.33366 9.16671H4.83366ZM6.50033 5.83337C6.26421 5.83337 6.0663 5.75351 5.90658 5.59379C5.74685 5.43407 5.66699 5.23615 5.66699 5.00004C5.66699 4.76393 5.74685 4.56601 5.90658 4.40629C6.0663 4.24657 6.26421 4.16671 6.50033 4.16671H11.5003C11.7364 4.16671 11.9344 4.24657 12.0941 4.40629C12.2538 4.56601 12.3337 4.76393 12.3337 5.00004C12.3337 5.23615 12.2538 5.43407 12.0941 5.59379C11.9344 5.75351 11.7364 5.83337 11.5003 5.83337H6.50033ZM10.667 9.16671C10.4309 9.16671 10.233 9.08685 10.0732 8.92712C9.91352 8.7674 9.83366 8.56949 9.83366 8.33337C9.83366 8.09726 9.91352 7.89935 10.0732 7.73962C10.233 7.5799 10.4309 7.50004 10.667 7.50004H13.167C13.8614 7.50004 14.4517 7.25699 14.9378 6.77087C15.4239 6.28476 15.667 5.69449 15.667 5.00004C15.667 4.3056 15.4239 3.71532 14.9378 3.22921C14.4517 2.7431 13.8614 2.50004 13.167 2.50004H10.667C10.4309 2.50004 10.233 2.42018 10.0732 2.26046C9.91352 2.10074 9.83366 1.90282 9.83366 1.66671C9.83366 1.4306 9.91352 1.23268 10.0732 1.07296C10.233 0.913235 10.4309 0.833374 10.667 0.833374H13.167C14.3198 0.833374 15.3024 1.23962 16.1149 2.05212C16.9274 2.86462 17.3337 3.84726 17.3337 5.00004C17.3337 6.15282 16.9274 7.13546 16.1149 7.94796C15.3024 8.76046 14.3198 9.16671 13.167 9.16671H10.667Z" fill="#1C1B1F"/>
</svg>
