<svg width="22" height="22" viewBox="0 0 22 22" fill="none" xmlns="http://www.w3.org/2000/svg">
<path d="M10.9998 21.95C10.7165 21.95 10.479 21.8542 10.2873 21.6625C10.0956 21.4709 9.9998 21.2334 9.9998 20.95V19.95C7.91647 19.7167 6.12897 18.8542 4.6373 17.3625C3.14564 15.8709 2.28314 14.0834 2.0498 12H1.0498C0.766471 12 0.528971 11.9042 0.337305 11.7125C0.145638 11.5209 0.0498047 11.2834 0.0498047 11C0.0498047 10.7167 0.145638 10.4792 0.337305 10.2875C0.528971 10.0959 0.766471 10 1.0498 10H2.0498C2.28314 7.91672 3.14564 6.12922 4.6373 4.63755C6.12897 3.14588 7.91647 2.28338 9.9998 2.05005V1.05005C9.9998 0.766716 10.0956 0.529215 10.2873 0.337549C10.479 0.145882 10.7165 0.0500488 10.9998 0.0500488C11.2831 0.0500488 11.5206 0.145882 11.7123 0.337549C11.904 0.529215 11.9998 0.766716 11.9998 1.05005V2.05005C14.0831 2.28338 15.8706 3.14588 17.3623 4.63755C18.854 6.12922 19.7165 7.91672 19.9498 10H20.9498C21.2331 10 21.4706 10.0959 21.6623 10.2875C21.854 10.4792 21.9498 10.7167 21.9498 11C21.9498 11.2834 21.854 11.5209 21.6623 11.7125C21.4706 11.9042 21.2331 12 20.9498 12H19.9498C19.7165 14.0834 18.854 15.8709 17.3623 17.3625C15.8706 18.8542 14.0831 19.7167 11.9998 19.95V20.95C11.9998 21.2334 11.904 21.4709 11.7123 21.6625C11.5206 21.8542 11.2831 21.95 10.9998 21.95ZM10.9998 18C12.9331 18 14.5831 17.3167 15.9498 15.95C17.3165 14.5834 17.9998 12.9334 17.9998 11C17.9998 9.06672 17.3165 7.41672 15.9498 6.05005C14.5831 4.68338 12.9331 4.00005 10.9998 4.00005C9.06647 4.00005 7.41647 4.68338 6.0498 6.05005C4.68314 7.41672 3.9998 9.06672 3.9998 11C3.9998 12.9334 4.68314 14.5834 6.0498 15.95C7.41647 17.3167 9.06647 18 10.9998 18ZM10.9998 15C9.8998 15 8.95814 14.6084 8.1748 13.825C7.39147 13.0417 6.9998 12.1 6.9998 11C6.9998 9.90005 7.39147 8.95838 8.1748 8.17505C8.95814 7.39172 9.8998 7.00005 10.9998 7.00005C12.0998 7.00005 13.0415 7.39172 13.8248 8.17505C14.6081 8.95838 14.9998 9.90005 14.9998 11C14.9998 12.1 14.6081 13.0417 13.8248 13.825C13.0415 14.6084 12.0998 15 10.9998 15ZM10.9998 13C11.5498 13 12.0206 12.8042 12.4123 12.4125C12.804 12.0209 12.9998 11.55 12.9998 11C12.9998 10.45 12.804 9.97922 12.4123 9.58755C12.0206 9.19588 11.5498 9.00005 10.9998 9.00005C10.4498 9.00005 9.97897 9.19588 9.58731 9.58755C9.19564 9.97922 8.9998 10.45 8.9998 11C8.9998 11.55 9.19564 12.0209 9.58731 12.4125C9.97897 12.8042 10.4498 13 10.9998 13Z" fill="#12100E"/>
</svg>
