<svg width="24" height="24" viewBox="0 0 24 24" fill="none" xmlns="http://www.w3.org/2000/svg">
<mask id="mask0_159_4153" style="mask-type:alpha" maskUnits="userSpaceOnUse" x="0" y="0" width="24" height="24">
<rect width="24" height="24" fill="#D9D9D9"/>
</mask>
<g mask="url(#mask0_159_4153)">
<path d="M17.5 20.5C16.5333 20.5 15.7083 20.1583 15.025 19.475C14.3417 18.7917 14 17.9667 14 17C14 16.0333 14.3417 15.2083 15.025 14.525C15.7083 13.8417 16.5333 13.5 17.5 13.5C18.4667 13.5 19.2917 13.8417 19.975 14.525C20.6583 15.2083 21 16.0333 21 17C21 17.9667 20.6583 18.7917 19.975 19.475C19.2917 20.1583 18.4667 20.5 17.5 20.5ZM17.5 18.5C17.9167 18.5 18.2708 18.3542 18.5625 18.0625C18.8542 17.7708 19 17.4167 19 17C19 16.5833 18.8542 16.2292 18.5625 15.9375C18.2708 15.6458 17.9167 15.5 17.5 15.5C17.0833 15.5 16.7292 15.6458 16.4375 15.9375C16.1458 16.2292 16 16.5833 16 17C16 17.4167 16.1458 17.7708 16.4375 18.0625C16.7292 18.3542 17.0833 18.5 17.5 18.5ZM11 18H4C3.71667 18 3.47917 17.9042 3.2875 17.7125C3.09583 17.5208 3 17.2833 3 17C3 16.7167 3.09583 16.4792 3.2875 16.2875C3.47917 16.0958 3.71667 16 4 16H11C11.2833 16 11.5208 16.0958 11.7125 16.2875C11.9042 16.4792 12 16.7167 12 17C12 17.2833 11.9042 17.5208 11.7125 17.7125C11.5208 17.9042 11.2833 18 11 18ZM6.5 10.5C5.53333 10.5 4.70833 10.1583 4.025 9.475C3.34167 8.79167 3 7.96667 3 7C3 6.03333 3.34167 5.20833 4.025 4.525C4.70833 3.84167 5.53333 3.5 6.5 3.5C7.46667 3.5 8.29167 3.84167 8.975 4.525C9.65833 5.20833 10 6.03333 10 7C10 7.96667 9.65833 8.79167 8.975 9.475C8.29167 10.1583 7.46667 10.5 6.5 10.5ZM6.5 8.5C6.91667 8.5 7.27083 8.35417 7.5625 8.0625C7.85417 7.77083 8 7.41667 8 7C8 6.58333 7.85417 6.22917 7.5625 5.9375C7.27083 5.64583 6.91667 5.5 6.5 5.5C6.08333 5.5 5.72917 5.64583 5.4375 5.9375C5.14583 6.22917 5 6.58333 5 7C5 7.41667 5.14583 7.77083 5.4375 8.0625C5.72917 8.35417 6.08333 8.5 6.5 8.5ZM20 8H13C12.7167 8 12.4792 7.90417 12.2875 7.7125C12.0958 7.52083 12 7.28333 12 7C12 6.71667 12.0958 6.47917 12.2875 6.2875C12.4792 6.09583 12.7167 6 13 6H20C20.2833 6 20.5208 6.09583 20.7125 6.2875C20.9042 6.47917 21 6.71667 21 7C21 7.28333 20.9042 7.52083 20.7125 7.7125C20.5208 7.90417 20.2833 8 20 8Z" fill="#1C1B1F"/>
</g>
</svg>
