<svg width="18" height="20" viewBox="0 0 18 20" fill="none" xmlns="http://www.w3.org/2000/svg">
<path d="M3 19.9992C2.16667 19.9992 1.45833 19.7076 0.875 19.1242C0.291667 18.5409 0 17.8326 0 16.9992V14.9992C0 14.7159 0.0958333 14.4784 0.2875 14.2867C0.479167 14.0951 0.716667 13.9992 1 13.9992H3V0.724219C3 0.574219 3.06667 0.482552 3.2 0.449219C3.33333 0.415885 3.46667 0.465885 3.6 0.599219L4.5 1.49922L5.65 0.349219C5.75 0.249219 5.86667 0.199219 6 0.199219C6.13333 0.199219 6.25 0.249219 6.35 0.349219L7.5 1.49922L8.65 0.349219C8.75 0.249219 8.86667 0.199219 9 0.199219C9.13333 0.199219 9.25 0.249219 9.35 0.349219L10.5 1.49922L11.65 0.349219C11.75 0.249219 11.8667 0.199219 12 0.199219C12.1333 0.199219 12.25 0.249219 12.35 0.349219L13.5 1.49922L14.65 0.349219C14.75 0.249219 14.8667 0.199219 15 0.199219C15.1333 0.199219 15.25 0.249219 15.35 0.349219L16.5 1.49922L17.4 0.599219C17.5333 0.465885 17.6667 0.411719 17.8 0.436719C17.9333 0.461719 18 0.557552 18 0.724219V16.9992C18 17.8326 17.7083 18.5409 17.125 19.1242C16.5417 19.7076 15.8333 19.9992 15 19.9992H3ZM15 17.9992C15.2833 17.9992 15.5208 17.9034 15.7125 17.7117C15.9042 17.5201 16 17.2826 16 16.9992V2.99922H5V13.9992H13C13.2833 13.9992 13.5208 14.0951 13.7125 14.2867C13.9042 14.4784 14 14.7159 14 14.9992V16.9992C14 17.2826 14.0958 17.5201 14.2875 17.7117C14.4792 17.9034 14.7167 17.9992 15 17.9992ZM6.975 6.99922C6.69167 6.99922 6.45833 6.90339 6.275 6.71172C6.09167 6.52005 6 6.28255 6 5.99922C6 5.71589 6.09583 5.47839 6.2875 5.28672C6.47917 5.09505 6.71667 4.99922 7 4.99922H11C11.2833 4.99922 11.5208 5.09505 11.7125 5.28672C11.9042 5.47839 12 5.71589 12 5.99922C12 6.28255 11.9042 6.52005 11.7125 6.71172C11.5208 6.90339 11.2833 6.99922 11 6.99922H6.975ZM6.975 9.99922C6.69167 9.99922 6.45833 9.90339 6.275 9.71172C6.09167 9.52005 6 9.28255 6 8.99922C6 8.71589 6.09583 8.47839 6.2875 8.28672C6.47917 8.09505 6.71667 7.99922 7 7.99922H11C11.2833 7.99922 11.5208 8.09505 11.7125 8.28672C11.9042 8.47839 12 8.71589 12 8.99922C12 9.28255 11.9042 9.52005 11.7125 9.71172C11.5208 9.90339 11.2833 9.99922 11 9.99922H6.975ZM14 6.99922C13.7167 6.99922 13.4792 6.90339 13.2875 6.71172C13.0958 6.52005 13 6.28255 13 5.99922C13 5.71589 13.0958 5.47839 13.2875 5.28672C13.4792 5.09505 13.7167 4.99922 14 4.99922C14.2833 4.99922 14.5208 5.09505 14.7125 5.28672C14.9042 5.47839 15 5.71589 15 5.99922C15 6.28255 14.9042 6.52005 14.7125 6.71172C14.5208 6.90339 14.2833 6.99922 14 6.99922ZM14 9.99922C13.7167 9.99922 13.4792 9.90339 13.2875 9.71172C13.0958 9.52005 13 9.28255 13 8.99922C13 8.71589 13.0958 8.47839 13.2875 8.28672C13.4792 8.09505 13.7167 7.99922 14 7.99922C14.2833 7.99922 14.5208 8.09505 14.7125 8.28672C14.9042 8.47839 15 8.71589 15 8.99922C15 9.28255 14.9042 9.52005 14.7125 9.71172C14.5208 9.90339 14.2833 9.99922 14 9.99922ZM3 17.9992H12V15.9992H2V16.9992C2 17.2826 2.09583 17.5201 2.2875 17.7117C2.47917 17.9034 2.71667 17.9992 3 17.9992Z" fill="#12100E"/>
</svg>
