<svg width="14" height="16" viewBox="0 0 14 16" fill="none" xmlns="http://www.w3.org/2000/svg">
<path d="M5.18766 15.25C3.75711 14.8472 2.59044 14.059 1.68766 12.8854C0.784885 11.7118 0.333496 10.3611 0.333496 8.83333C0.333496 8.04167 0.465441 7.2882 0.729329 6.57292C0.993218 5.85764 1.36822 5.20139 1.85433 4.60417C2.00711 4.4375 2.19461 4.3507 2.41683 4.34375C2.63905 4.33681 2.84044 4.42361 3.021 4.60417C3.17377 4.75695 3.25363 4.94445 3.26058 5.16667C3.26752 5.38889 3.19461 5.59722 3.04183 5.79167C2.7085 6.22222 2.45155 6.69445 2.271 7.20833C2.09044 7.72222 2.00016 8.26389 2.00016 8.83333C2.00016 9.95833 2.33002 10.9618 2.98975 11.8438C3.64947 12.7257 4.50016 13.3264 5.54183 13.6458C5.72238 13.7014 5.87169 13.8056 5.98975 13.9583C6.1078 14.1111 6.16683 14.2778 6.16683 14.4583C6.16683 14.7361 6.06961 14.9549 5.87516 15.1146C5.68072 15.2743 5.45155 15.3194 5.18766 15.25ZM8.81266 15.25C8.54877 15.3194 8.31961 15.2708 8.12516 15.1042C7.93072 14.9375 7.8335 14.7153 7.8335 14.4375C7.8335 14.2708 7.89252 14.1111 8.01058 13.9583C8.12864 13.8056 8.27794 13.7014 8.4585 13.6458C9.50016 13.3125 10.3509 12.7083 11.0106 11.8333C11.6703 10.9583 12.0002 9.95833 12.0002 8.83333C12.0002 7.44445 11.5141 6.26389 10.5418 5.29167C9.56961 4.31944 8.38905 3.83333 7.00016 3.83333H6.93766L7.271 4.16667C7.42377 4.31944 7.50016 4.51389 7.50016 4.75C7.50016 4.98611 7.42377 5.18056 7.271 5.33333C7.11822 5.48611 6.92377 5.5625 6.68766 5.5625C6.45155 5.5625 6.25711 5.48611 6.10433 5.33333L4.35433 3.58333C4.271 3.5 4.21197 3.40972 4.17725 3.3125C4.14252 3.21528 4.12516 3.11111 4.12516 3C4.12516 2.88889 4.14252 2.78472 4.17725 2.6875C4.21197 2.59028 4.271 2.5 4.35433 2.41667L6.10433 0.666667C6.25711 0.513889 6.45155 0.4375 6.68766 0.4375C6.92377 0.4375 7.11822 0.513889 7.271 0.666667C7.42377 0.819445 7.50016 1.01389 7.50016 1.25C7.50016 1.48611 7.42377 1.68056 7.271 1.83333L6.93766 2.16667H7.00016C8.86127 2.16667 10.4377 2.8125 11.7293 4.10417C13.021 5.39583 13.6668 6.97222 13.6668 8.83333C13.6668 10.3472 13.2154 11.6944 12.3127 12.875C11.4099 14.0556 10.2432 14.8472 8.81266 15.25Z" fill="#B2B3B2"/>
</svg>
