<svg width="16" height="16" viewBox="0 0 16 16" fill="none" xmlns="http://www.w3.org/2000/svg">
<path d="M2.16667 15.5C1.70833 15.5 1.31597 15.3368 0.989583 15.0104C0.663194 14.684 0.5 14.2917 0.5 13.8333V2.16667C0.5 1.70833 0.663194 1.31597 0.989583 0.989583C1.31597 0.663194 1.70833 0.5 2.16667 0.5H11.4792C11.7014 0.5 11.9132 0.541667 12.1146 0.625C12.316 0.708333 12.4931 0.826389 12.6458 0.979167L15.0208 3.35417C15.1736 3.50694 15.2917 3.68403 15.375 3.88542C15.4583 4.08681 15.5 4.29861 15.5 4.52083V13.8333C15.5 14.2917 15.3368 14.684 15.0104 15.0104C14.684 15.3368 14.2917 15.5 13.8333 15.5H2.16667ZM13.8333 4.54167L11.4583 2.16667H2.16667V13.8333H13.8333V4.54167ZM8 13C8.69444 13 9.28472 12.7569 9.77083 12.2708C10.2569 11.7847 10.5 11.1944 10.5 10.5C10.5 9.80556 10.2569 9.21528 9.77083 8.72917C9.28472 8.24306 8.69444 8 8 8C7.30556 8 6.71528 8.24306 6.22917 8.72917C5.74306 9.21528 5.5 9.80556 5.5 10.5C5.5 11.1944 5.74306 11.7847 6.22917 12.2708C6.71528 12.7569 7.30556 13 8 13ZM3.83333 6.33333H9.66667C9.90278 6.33333 10.1007 6.25347 10.2604 6.09375C10.4201 5.93403 10.5 5.73611 10.5 5.5V3.83333C10.5 3.59722 10.4201 3.39931 10.2604 3.23958C10.1007 3.07986 9.90278 3 9.66667 3H3.83333C3.59722 3 3.39931 3.07986 3.23958 3.23958C3.07986 3.39931 3 3.59722 3 3.83333V5.5C3 5.73611 3.07986 5.93403 3.23958 6.09375C3.39931 6.25347 3.59722 6.33333 3.83333 6.33333Z" fill="#FDFDFD"/>
</svg>
