<svg width="22" height="20" viewBox="0 0 22 20" fill="none" xmlns="http://www.w3.org/2000/svg">
<path d="M8.2502 20L7.8502 16.8C7.63353 16.7167 7.42936 16.6167 7.2377 16.5C7.04603 16.3833 6.85853 16.2583 6.6752 16.125L3.7002 17.375L0.950195 12.625L3.5252 10.675C3.50853 10.5583 3.5002 10.4458 3.5002 10.3375V9.6625C3.5002 9.55417 3.50853 9.44167 3.5252 9.325L0.950195 7.375L3.7002 2.625L6.6752 3.875C6.85853 3.74167 7.0502 3.61667 7.2502 3.5C7.4502 3.38333 7.6502 3.28333 7.8502 3.2L8.2502 0H13.7502L14.1502 3.2C14.3669 3.28333 14.571 3.38333 14.7627 3.5C14.9544 3.61667 15.1419 3.74167 15.3252 3.875L18.3002 2.625L21.0502 7.375L18.4752 9.325C18.4919 9.44167 18.5002 9.55417 18.5002 9.6625V10.3375C18.5002 10.4458 18.4835 10.5583 18.4502 10.675L21.0252 12.625L18.2752 17.375L15.3252 16.125C15.1419 16.2583 14.9502 16.3833 14.7502 16.5C14.5502 16.6167 14.3502 16.7167 14.1502 16.8L13.7502 20H8.2502ZM11.0502 13.5C12.0169 13.5 12.8419 13.1583 13.5252 12.475C14.2085 11.7917 14.5502 10.9667 14.5502 10C14.5502 9.03333 14.2085 8.20833 13.5252 7.525C12.8419 6.84167 12.0169 6.5 11.0502 6.5C10.0669 6.5 9.2377 6.84167 8.5627 7.525C7.8877 8.20833 7.5502 9.03333 7.5502 10C7.5502 10.9667 7.8877 11.7917 8.5627 12.475C9.2377 13.1583 10.0669 13.5 11.0502 13.5ZM11.0502 11.5C10.6335 11.5 10.2794 11.3542 9.9877 11.0625C9.69603 10.7708 9.5502 10.4167 9.5502 10C9.5502 9.58333 9.69603 9.22917 9.9877 8.9375C10.2794 8.64583 10.6335 8.5 11.0502 8.5C11.4669 8.5 11.821 8.64583 12.1127 8.9375C12.4044 9.22917 12.5502 9.58333 12.5502 10C12.5502 10.4167 12.4044 10.7708 12.1127 11.0625C11.821 11.3542 11.4669 11.5 11.0502 11.5ZM10.0002 18H11.9752L12.3252 15.35C12.8419 15.2167 13.321 15.0208 13.7627 14.7625C14.2044 14.5042 14.6085 14.1917 14.9752 13.825L17.4502 14.85L18.4252 13.15L16.2752 11.525C16.3585 11.2917 16.4169 11.0458 16.4502 10.7875C16.4835 10.5292 16.5002 10.2667 16.5002 10C16.5002 9.73333 16.4835 9.47083 16.4502 9.2125C16.4169 8.95417 16.3585 8.70833 16.2752 8.475L18.4252 6.85L17.4502 5.15L14.9752 6.2C14.6085 5.81667 14.2044 5.49583 13.7627 5.2375C13.321 4.97917 12.8419 4.78333 12.3252 4.65L12.0002 2H10.0252L9.6752 4.65C9.15853 4.78333 8.67936 4.97917 8.2377 5.2375C7.79603 5.49583 7.39186 5.80833 7.0252 6.175L4.5502 5.15L3.5752 6.85L5.7252 8.45C5.64186 8.7 5.58353 8.95 5.5502 9.2C5.51686 9.45 5.5002 9.71667 5.5002 10C5.5002 10.2667 5.51686 10.525 5.5502 10.775C5.58353 11.025 5.64186 11.275 5.7252 11.525L3.5752 13.15L4.5502 14.85L7.0252 13.8C7.39186 14.1833 7.79603 14.5042 8.2377 14.7625C8.67936 15.0208 9.15853 15.2167 9.6752 15.35L10.0002 18Z" fill="#B2B3B2"/>
</svg>
