<svg width="24" height="24" viewBox="0 0 24 24" fill="none" xmlns="http://www.w3.org/2000/svg">
<mask id="mask0_127_15296" style="mask-type:alpha" maskUnits="userSpaceOnUse" x="0" y="0" width="24" height="24">
<rect width="24" height="24" fill="#D9D9D9"/>
</mask>
<g mask="url(#mask0_127_15296)">
<path d="M10 19C9.71672 19 9.47922 18.9042 9.28755 18.7125C9.09588 18.5209 9.00005 18.2834 9.00005 18C9.00005 17.7167 9.09588 17.4792 9.28755 17.2875C9.47922 17.0959 9.71672 17 10 17H15.6L4.70005 6.10005C4.51672 5.91672 4.42505 5.68338 4.42505 5.40005C4.42505 5.11672 4.51672 4.88338 4.70005 4.70005C4.88338 4.51672 5.11672 4.42505 5.40005 4.42505C5.68338 4.42505 5.91672 4.51672 6.10005 4.70005L17 15.6V10C17 9.71672 17.0959 9.47922 17.2875 9.28755C17.4792 9.09588 17.7167 9.00005 18 9.00005C18.2834 9.00005 18.5209 9.09588 18.7125 9.28755C18.9042 9.47922 19 9.71672 19 10V18C19 18.2834 18.9042 18.5209 18.7125 18.7125C18.5209 18.9042 18.2834 19 18 19H10Z" fill="#1C1B1F"/>
</g>
</svg>
