<svg width="22" height="20" viewBox="0 0 22 20" fill="none" xmlns="http://www.w3.org/2000/svg">
<path d="M18 5.5C18.2833 5.5 18.5208 5.40417 18.7125 5.2125C18.9042 5.02083 19 4.78333 19 4.5C19 4.21667 18.9042 3.97917 18.7125 3.7875C18.5208 3.59583 18.2833 3.5 18 3.5C17.7167 3.5 17.4792 3.59583 17.2875 3.7875C17.0958 3.97917 17 4.21667 17 4.5C17 4.78333 17.0958 5.02083 17.2875 5.2125C17.4792 5.40417 17.7167 5.5 18 5.5ZM14 5.5C14.2833 5.5 14.5208 5.40417 14.7125 5.2125C14.9042 5.02083 15 4.78333 15 4.5C15 4.21667 14.9042 3.97917 14.7125 3.7875C14.5208 3.59583 14.2833 3.5 14 3.5C13.7167 3.5 13.4792 3.59583 13.2875 3.7875C13.0958 3.97917 13 4.21667 13 4.5C13 4.78333 13.0958 5.02083 13.2875 5.2125C13.4792 5.40417 13.7167 5.5 14 5.5ZM13.5 8.9H18.5C18.5 8.31667 18.2458 7.85417 17.7375 7.5125C17.2292 7.17083 16.65 7 16 7C15.35 7 14.7708 7.17083 14.2625 7.5125C13.7542 7.85417 13.5 8.31667 13.5 8.9ZM6 20C4.33333 20 2.91667 19.4167 1.75 18.25C0.583333 17.0833 0 15.6667 0 14V7H12V14C12 15.6667 11.4167 17.0833 10.25 18.25C9.08333 19.4167 7.66667 20 6 20ZM6 18C7.1 18 8.04167 17.6083 8.825 16.825C9.60833 16.0417 10 15.1 10 14V9H2V14C2 15.1 2.39167 16.0417 3.175 16.825C3.95833 17.6083 4.9 18 6 18ZM16 13C15.5667 13 15.1375 12.9542 14.7125 12.8625C14.2875 12.7708 13.8833 12.6333 13.5 12.45V10.1C13.8667 10.3833 14.2625 10.6042 14.6875 10.7625C15.1125 10.9208 15.55 11 16 11C17.1 11 18.0417 10.6083 18.825 9.825C19.6083 9.04167 20 8.1 20 7V2H12V5.5H10V0H22V7C22 8.66667 21.4167 10.0833 20.25 11.25C19.0833 12.4167 17.6667 13 16 13ZM4 12.5C4.28333 12.5 4.52083 12.4042 4.7125 12.2125C4.90417 12.0208 5 11.7833 5 11.5C5 11.2167 4.90417 10.9792 4.7125 10.7875C4.52083 10.5958 4.28333 10.5 4 10.5C3.71667 10.5 3.47917 10.5958 3.2875 10.7875C3.09583 10.9792 3 11.2167 3 11.5C3 11.7833 3.09583 12.0208 3.2875 12.2125C3.47917 12.4042 3.71667 12.5 4 12.5ZM8 12.5C8.28333 12.5 8.52083 12.4042 8.7125 12.2125C8.90417 12.0208 9 11.7833 9 11.5C9 11.2167 8.90417 10.9792 8.7125 10.7875C8.52083 10.5958 8.28333 10.5 8 10.5C7.71667 10.5 7.47917 10.5958 7.2875 10.7875C7.09583 10.9792 7 11.2167 7 11.5C7 11.7833 7.09583 12.0208 7.2875 12.2125C7.47917 12.4042 7.71667 12.5 8 12.5ZM6 15.9C6.65 15.9 7.22917 15.7292 7.7375 15.3875C8.24583 15.0458 8.5 14.5833 8.5 14H3.5C3.5 14.5833 3.75417 15.0458 4.2625 15.3875C4.77083 15.7292 5.35 15.9 6 15.9Z" fill="#B2B3B2"/>
</svg>
