<svg width="15" height="15" viewBox="0 0 15 15" fill="none" xmlns="http://www.w3.org/2000/svg">
<path fill-rule="evenodd" clip-rule="evenodd" d="M6.87543 0.5C5.85888 0.500087 4.85708 0.743273 3.95363 1.20927C3.05017 1.67527 2.27125 2.35056 1.68186 3.17882C1.09247 4.00707 0.709692 4.96426 0.565465 5.97053C0.421239 6.97681 0.519746 8.00298 0.852768 8.96344C1.18579 9.9239 1.74367 10.7908 2.47986 11.4918C3.21605 12.1928 4.10921 12.7076 5.08482 12.9932C6.06043 13.2788 7.09019 13.327 8.0882 13.1337C9.08621 12.9404 10.0235 12.5112 10.8219 11.882L13.5609 14.621C13.7024 14.7576 13.8918 14.8332 14.0885 14.8315C14.2851 14.8298 14.4732 14.7509 14.6123 14.6119C14.7514 14.4728 14.8302 14.2847 14.8319 14.0881C14.8336 13.8914 14.7581 13.702 14.6214 13.5605L11.8824 10.8215C12.6234 9.88146 13.0848 8.7518 13.2138 7.56179C13.3427 6.37179 13.134 5.16952 12.6116 4.09257C12.0892 3.01562 11.2741 2.10752 10.2597 1.47217C9.24522 0.83683 8.07241 0.49992 6.87543 0.5ZM2.00043 6.875C2.00043 5.58207 2.51405 4.34209 3.42829 3.42785C4.34253 2.51361 5.5825 2 6.87543 2C8.16837 2 9.40834 2.51361 10.3226 3.42785C11.2368 4.34209 11.7504 5.58207 11.7504 6.875C11.7504 8.16793 11.2368 9.40791 10.3226 10.3221C9.40834 11.2364 8.16837 11.75 6.87543 11.75C5.5825 11.75 4.34253 11.2364 3.42829 10.3221C2.51405 9.40791 2.00043 8.16793 2.00043 6.875Z" fill="#868686"/>
</svg>
