<svg width="24" height="24" viewBox="0 0 24 24" fill="none" xmlns="http://www.w3.org/2000/svg">
<mask id="mask0_127_15295" style="mask-type:alpha" maskUnits="userSpaceOnUse" x="0" y="0" width="24" height="24">
<rect width="24" height="24" fill="#D9D9D9"/>
</mask>
<g mask="url(#mask0_127_15295)">
<path d="M9 20C8.68333 20 8.4 19.9083 8.15 19.725C7.9 19.5417 7.71667 19.3083 7.6 19.025L5.3 13H2C1.71667 13 1.47917 12.9042 1.2875 12.7125C1.09583 12.5208 1 12.2833 1 12C1 11.7167 1.09583 11.4792 1.2875 11.2875C1.47917 11.0958 1.71667 11 2 11H6C6.21667 11 6.40417 11.0583 6.5625 11.175C6.72083 11.2917 6.84167 11.45 6.925 11.65L9 17.1L13.6 4.975C13.7167 4.69167 13.9 4.45833 14.15 4.275C14.4 4.09167 14.6833 4 15 4C15.3167 4 15.6 4.09167 15.85 4.275C16.1 4.45833 16.2833 4.69167 16.4 4.975L18.7 11H22C22.2833 11 22.5208 11.0958 22.7125 11.2875C22.9042 11.4792 23 11.7167 23 12C23 12.2833 22.9042 12.5208 22.7125 12.7125C22.5208 12.9042 22.2833 13 22 13H18C17.7833 13 17.5958 12.9417 17.4375 12.825C17.2792 12.7083 17.1583 12.55 17.075 12.35L15 6.9L10.4 19.025C10.2833 19.3083 10.1 19.5417 9.85 19.725C9.6 19.9083 9.31667 20 9 20Z" fill="#1C1B1F"/>
</g>
</svg>
